# xmcd
#
# Track frame offsets:
#	150
#	17595
#	35920
#	49370
#	64190
#	80481
#	95830
#	111334
#	127394
#	144411
#	157248
#	172644
#	188425
#	205424
#	217159
#	234259
#	253817
#
# Disc length: 3665 seconds
#
# Revision: 4
# Processed by: cddbd v1.5.1PL0 Copyright (c) Steve Scherf et al.
# Submitted via: audiograbber 1.83.01
#
DISCID=020e4f11
DTITLE=2001-04 Country Radio - 2001-04 Country Radio
DYEAR=2001
DGENRE=Country
TTITLE0=Tim McGraw - Grown Men Don't Cry
TTITLE1=Brad Paisley - Two People Fell In Love
TTITLE2=Jamie O'Neal - When I Think About Angels
TTITLE3=Billy Ray Cyrus - Crazy About You Baby
TTITLE4=Lila McConn - Come A Little Closer
TTITLE5=Rascal Flatts - While You Loved Me
TTITLE6=Saggy Bottom Boys - I Am A Man Of Constant Sorrow
TTITLE7=Carolyn Down Johnson - Complicated
TTITLE8=John Rich - Forever Loving You
TTITLE9=Rick Ferrell - The Girl's Got It Going On
TTITLE10=Billy Gilam - There's A Hero
TTITLE11=3 Of Hears - Love Is Enogh
TTITLE12=Darryl Worley - Second Wind
TTITLE13=Trent Summar and The New Row Mob - Paint Your Name Purple
TTITLE14=Blake Shelton - Austin
TTITLE15=Jolie and The Wanted - I'm Beautiful(When I Look Into Your Eyes)
TTITLE16=Richard Marx and Alison Krauss - Straight From My Heart
EXTD=
EXTT0=
EXTT1=
EXTT2=
EXTT3=
EXTT4=
EXTT5=
EXTT6=
EXTT7=
EXTT8=
EXTT9=
EXTT10=
EXTT11=
EXTT12=
EXTT13=
EXTT14=
EXTT15=
EXTT16=
PLAYORDER=
